solid OpenSCAD_Model
  facet normal 1 -0 0
    outer loop
      vertex -15 -45 15
      vertex -15 -15 -15
      vertex -15 -15 15
    endloop
  endfacet
  facet normal 1 0 0
    outer loop
      vertex -15 -15 -15
      vertex -15 -45 15
      vertex -15 -45 -15
    endloop
  endfacet
  facet normal 1 -0 0
    outer loop
      vertex -15 15 15
      vertex -15 45 -15
      vertex -15 45 15
    endloop
  endfacet
  facet normal 1 0 0
    outer loop
      vertex -15 45 -15
      vertex -15 15 15
      vertex -15 15 -15
    endloop
  endfacet
  facet normal 1 -0 0
    outer loop
      vertex -15 -15 45
      vertex -15 15 15
      vertex -15 15 45
    endloop
  endfacet
  facet normal 1 0 0
    outer loop
      vertex -15 15 15
      vertex -15 -15 45
      vertex -15 -15 15
    endloop
  endfacet
  facet normal 1 -0 0
    outer loop
      vertex -15 -15 -15
      vertex -15 15 -45
      vertex -15 15 -15
    endloop
  endfacet
  facet normal 1 0 0
    outer loop
      vertex -15 15 -45
      vertex -15 -15 -15
      vertex -15 -15 -45
    endloop
  endfacet
  facet normal 0 0 1
    outer loop
      vertex 45 45 45
      vertex 15 15 45
      vertex 45 -45 45
    endloop
  endfacet
  facet normal 0 0 1
    outer loop
      vertex 45 45 45
      vertex -15 15 45
      vertex 15 15 45
    endloop
  endfacet
  facet normal 0 0 1
    outer loop
      vertex -15 15 45
      vertex -45 45 45
      vertex -15 -15 45
    endloop
  endfacet
  facet normal -0 0 1
    outer loop
      vertex -45 45 45
      vertex -15 15 45
      vertex 45 45 45
    endloop
  endfacet
  facet normal -0 0 1
    outer loop
      vertex 15 -15 45
      vertex 45 -45 45
      vertex 15 15 45
    endloop
  endfacet
  facet normal -0 0 1
    outer loop
      vertex -15 -15 45
      vertex 45 -45 45
      vertex 15 -15 45
    endloop
  endfacet
  facet normal 0 0 1
    outer loop
      vertex -15 -15 45
      vertex -45 -45 45
      vertex 45 -45 45
    endloop
  endfacet
  facet normal 0 0 1
    outer loop
      vertex -45 -45 45
      vertex -15 -15 45
      vertex -45 45 45
    endloop
  endfacet
  facet normal -1 0 0
    outer loop
      vertex 15 -45 -15
      vertex 15 -15 15
      vertex 15 -15 -15
    endloop
  endfacet
  facet normal -1 -0 0
    outer loop
      vertex 15 -15 15
      vertex 15 -45 -15
      vertex 15 -45 15
    endloop
  endfacet
  facet normal -1 0 0
    outer loop
      vertex 15 15 -15
      vertex 15 45 15
      vertex 15 45 -15
    endloop
  endfacet
  facet normal -1 -0 0
    outer loop
      vertex 15 45 15
      vertex 15 15 -15
      vertex 15 15 15
    endloop
  endfacet
  facet normal -1 0 0
    outer loop
      vertex 15 -15 15
      vertex 15 15 45
      vertex 15 15 15
    endloop
  endfacet
  facet normal -1 -0 0
    outer loop
      vertex 15 15 45
      vertex 15 -15 15
      vertex 15 -15 45
    endloop
  endfacet
  facet normal -1 0 0
    outer loop
      vertex 15 -15 -45
      vertex 15 15 -15
      vertex 15 15 -45
    endloop
  endfacet
  facet normal -1 -0 0
    outer loop
      vertex 15 15 -15
      vertex 15 -15 -45
      vertex 15 -15 -15
    endloop
  endfacet
  facet normal 0 -1 0
    outer loop
      vertex -15 15 15
      vertex 15 15 45
      vertex -15 15 45
    endloop
  endfacet
  facet normal 0 -1 -0
    outer loop
      vertex 15 15 45
      vertex -15 15 15
      vertex 15 15 15
    endloop
  endfacet
  facet normal 0 -1 0
    outer loop
      vertex -15 15 -45
      vertex 15 15 -15
      vertex -15 15 -15
    endloop
  endfacet
  facet normal 0 -1 -0
    outer loop
      vertex 15 15 -15
      vertex -15 15 -45
      vertex 15 15 -45
    endloop
  endfacet
  facet normal 0 0 -1
    outer loop
      vertex 45 -45 -45
      vertex 15 -15 -45
      vertex 45 45 -45
    endloop
  endfacet
  facet normal 0 0 -1
    outer loop
      vertex 45 -45 -45
      vertex -15 -15 -45
      vertex 15 -15 -45
    endloop
  endfacet
  facet normal -0 0 -1
    outer loop
      vertex -15 -15 -45
      vertex -45 -45 -45
      vertex -15 15 -45
    endloop
  endfacet
  facet normal 0 0 -1
    outer loop
      vertex -45 -45 -45
      vertex -15 -15 -45
      vertex 45 -45 -45
    endloop
  endfacet
  facet normal 0 0 -1
    outer loop
      vertex 15 15 -45
      vertex 45 45 -45
      vertex 15 -15 -45
    endloop
  endfacet
  facet normal 0 0 -1
    outer loop
      vertex -15 15 -45
      vertex 45 45 -45
      vertex 15 15 -45
    endloop
  endfacet
  facet normal 0 0 -1
    outer loop
      vertex -15 15 -45
      vertex -45 45 -45
      vertex 45 45 -45
    endloop
  endfacet
  facet normal 0 0 -1
    outer loop
      vertex -45 45 -45
      vertex -15 15 -45
      vertex -45 -45 -45
    endloop
  endfacet
  facet normal 0 1 -0
    outer loop
      vertex 15 -15 15
      vertex -15 -15 45
      vertex 15 -15 45
    endloop
  endfacet
  facet normal 0 1 0
    outer loop
      vertex -15 -15 45
      vertex 15 -15 15
      vertex -15 -15 15
    endloop
  endfacet
  facet normal 0 1 -0
    outer loop
      vertex 15 -15 -45
      vertex -15 -15 -15
      vertex 15 -15 -15
    endloop
  endfacet
  facet normal 0 1 0
    outer loop
      vertex -15 -15 -15
      vertex 15 -15 -45
      vertex -15 -15 -45
    endloop
  endfacet
  facet normal 0 0 -1
    outer loop
      vertex -15 -45 15
      vertex 15 -15 15
      vertex 15 -45 15
    endloop
  endfacet
  facet normal -0 0 -1
    outer loop
      vertex 15 -15 15
      vertex -15 -45 15
      vertex -15 -15 15
    endloop
  endfacet
  facet normal 0 0 -1
    outer loop
      vertex -15 15 15
      vertex 15 45 15
      vertex 15 15 15
    endloop
  endfacet
  facet normal -0 0 -1
    outer loop
      vertex 15 45 15
      vertex -15 15 15
      vertex -15 45 15
    endloop
  endfacet
  facet normal -0 0 1
    outer loop
      vertex -15 45 -15
      vertex 15 15 -15
      vertex 15 45 -15
    endloop
  endfacet
  facet normal 0 0 1
    outer loop
      vertex 15 15 -15
      vertex -15 45 -15
      vertex -15 15 -15
    endloop
  endfacet
  facet normal -0 0 1
    outer loop
      vertex -15 -15 -15
      vertex 15 -45 -15
      vertex 15 -15 -15
    endloop
  endfacet
  facet normal 0 0 1
    outer loop
      vertex 15 -45 -15
      vertex -15 -15 -15
      vertex -15 -45 -15
    endloop
  endfacet
  facet normal 0 -1 0
    outer loop
      vertex -45 -45 45
      vertex -15 -45 15
      vertex 45 -45 45
    endloop
  endfacet
  facet normal 0 -1 0
    outer loop
      vertex -45 -45 45
      vertex -15 -45 -15
      vertex -15 -45 15
    endloop
  endfacet
  facet normal 0 -1 -0
    outer loop
      vertex -15 -45 -15
      vertex -45 -45 -45
      vertex 15 -45 -15
    endloop
  endfacet
  facet normal 0 -1 0
    outer loop
      vertex -45 -45 -45
      vertex -15 -45 -15
      vertex -45 -45 45
    endloop
  endfacet
  facet normal 0 -1 0
    outer loop
      vertex 15 -45 15
      vertex 45 -45 45
      vertex -15 -45 15
    endloop
  endfacet
  facet normal 0 -1 0
    outer loop
      vertex 15 -45 -15
      vertex 45 -45 45
      vertex 15 -45 15
    endloop
  endfacet
  facet normal 0 -1 0
    outer loop
      vertex 15 -45 -15
      vertex 45 -45 -45
      vertex 45 -45 45
    endloop
  endfacet
  facet normal 0 -1 0
    outer loop
      vertex 45 -45 -45
      vertex 15 -45 -15
      vertex -45 -45 -45
    endloop
  endfacet
  facet normal 0 1 0
    outer loop
      vertex 45 45 45
      vertex 15 45 15
      vertex -45 45 45
    endloop
  endfacet
  facet normal 0 1 0
    outer loop
      vertex 45 45 45
      vertex 15 45 -15
      vertex 15 45 15
    endloop
  endfacet
  facet normal 0 1 0
    outer loop
      vertex 15 45 -15
      vertex 45 45 -45
      vertex -15 45 -15
    endloop
  endfacet
  facet normal 0 1 -0
    outer loop
      vertex 45 45 -45
      vertex 15 45 -15
      vertex 45 45 45
    endloop
  endfacet
  facet normal 0 1 -0
    outer loop
      vertex -15 45 15
      vertex -45 45 45
      vertex 15 45 15
    endloop
  endfacet
  facet normal 0 1 -0
    outer loop
      vertex -15 45 -15
      vertex -45 45 45
      vertex -15 45 15
    endloop
  endfacet
  facet normal 0 1 0
    outer loop
      vertex -15 45 -15
      vertex -45 45 -45
      vertex -45 45 45
    endloop
  endfacet
  facet normal 0 1 0
    outer loop
      vertex -45 45 -45
      vertex -15 45 -15
      vertex 45 45 -45
    endloop
  endfacet
  facet normal -1 0 0
    outer loop
      vertex -45 45 -45
      vertex -45 15 -15
      vertex -45 45 45
    endloop
  endfacet
  facet normal -1 0 0
    outer loop
      vertex -45 45 -45
      vertex -45 -15 -15
      vertex -45 15 -15
    endloop
  endfacet
  facet normal -1 -0 0
    outer loop
      vertex -45 -15 -15
      vertex -45 -45 -45
      vertex -45 -15 15
    endloop
  endfacet
  facet normal -1 0 0
    outer loop
      vertex -45 -45 -45
      vertex -45 -15 -15
      vertex -45 45 -45
    endloop
  endfacet
  facet normal -1 0 0
    outer loop
      vertex -45 15 15
      vertex -45 45 45
      vertex -45 15 -15
    endloop
  endfacet
  facet normal -1 0 0
    outer loop
      vertex -45 -15 15
      vertex -45 45 45
      vertex -45 15 15
    endloop
  endfacet
  facet normal -1 0 0
    outer loop
      vertex -45 -15 15
      vertex -45 -45 45
      vertex -45 45 45
    endloop
  endfacet
  facet normal -1 0 0
    outer loop
      vertex -45 -45 45
      vertex -45 -15 15
      vertex -45 -45 -45
    endloop
  endfacet
  facet normal 0 0 -1
    outer loop
      vertex -45 -15 15
      vertex -15 15 15
      vertex -15 -15 15
    endloop
  endfacet
  facet normal -0 0 -1
    outer loop
      vertex -15 15 15
      vertex -45 -15 15
      vertex -45 15 15
    endloop
  endfacet
  facet normal 0 0 -1
    outer loop
      vertex 15 -15 15
      vertex 45 15 15
      vertex 45 -15 15
    endloop
  endfacet
  facet normal -0 0 -1
    outer loop
      vertex 45 15 15
      vertex 15 -15 15
      vertex 15 15 15
    endloop
  endfacet
  facet normal 1 0 0
    outer loop
      vertex 45 45 45
      vertex 45 15 15
      vertex 45 45 -45
    endloop
  endfacet
  facet normal 1 0 0
    outer loop
      vertex 45 45 45
      vertex 45 -15 15
      vertex 45 15 15
    endloop
  endfacet
  facet normal 1 0 0
    outer loop
      vertex 45 -15 15
      vertex 45 -45 45
      vertex 45 -15 -15
    endloop
  endfacet
  facet normal 1 -0 0
    outer loop
      vertex 45 -45 45
      vertex 45 -15 15
      vertex 45 45 45
    endloop
  endfacet
  facet normal 1 -0 0
    outer loop
      vertex 45 15 -15
      vertex 45 45 -45
      vertex 45 15 15
    endloop
  endfacet
  facet normal 1 -0 0
    outer loop
      vertex 45 -15 -15
      vertex 45 45 -45
      vertex 45 15 -15
    endloop
  endfacet
  facet normal 1 0 0
    outer loop
      vertex 45 -15 -15
      vertex 45 -45 -45
      vertex 45 45 -45
    endloop
  endfacet
  facet normal 1 0 0
    outer loop
      vertex 45 -45 -45
      vertex 45 -15 -15
      vertex 45 -45 45
    endloop
  endfacet
  facet normal 0 -1 0
    outer loop
      vertex 15 15 -15
      vertex 45 15 15
      vertex 15 15 15
    endloop
  endfacet
  facet normal 0 -1 -0
    outer loop
      vertex 45 15 15
      vertex 15 15 -15
      vertex 45 15 -15
    endloop
  endfacet
  facet normal 0 -1 0
    outer loop
      vertex -45 15 -15
      vertex -15 15 15
      vertex -45 15 15
    endloop
  endfacet
  facet normal 0 -1 -0
    outer loop
      vertex -15 15 15
      vertex -45 15 -15
      vertex -15 15 -15
    endloop
  endfacet
  facet normal -0 0 1
    outer loop
      vertex -45 15 -15
      vertex -15 -15 -15
      vertex -15 15 -15
    endloop
  endfacet
  facet normal 0 0 1
    outer loop
      vertex -15 -15 -15
      vertex -45 15 -15
      vertex -45 -15 -15
    endloop
  endfacet
  facet normal -0 0 1
    outer loop
      vertex 15 15 -15
      vertex 45 -15 -15
      vertex 45 15 -15
    endloop
  endfacet
  facet normal 0 0 1
    outer loop
      vertex 45 -15 -15
      vertex 15 15 -15
      vertex 15 -15 -15
    endloop
  endfacet
  facet normal 0 1 -0
    outer loop
      vertex -15 -15 -15
      vertex -45 -15 15
      vertex -15 -15 15
    endloop
  endfacet
  facet normal 0 1 0
    outer loop
      vertex -45 -15 15
      vertex -15 -15 -15
      vertex -45 -15 -15
    endloop
  endfacet
  facet normal 0 1 -0
    outer loop
      vertex 45 -15 -15
      vertex 15 -15 15
      vertex 45 -15 15
    endloop
  endfacet
  facet normal 0 1 0
    outer loop
      vertex 15 -15 15
      vertex 45 -15 -15
      vertex 15 -15 -15
    endloop
  endfacet
endsolid OpenSCAD_Model
